<?xml version="1.0" encoding="UTF-8"?>
<svg version="1.1" xmlns="http://www.w3.org/2000/svg" width="500" height="500">
<path d="M0 0 C165 0 330 0 500 0 C500 165 500 330 500 500 C335 500 170 500 0 500 C0 335 0 170 0 0 Z " fill="#FEFEFE" transform="translate(0,0)"/>
<path d="M0 0 C0.66 0.33 1.32 0.66 2 1 C0.35 2.98 -1.3 4.96 -3 7 C3.3259188 20.74670816 17.52038731 28.75382356 31.1015625 33.77734375 C44.74983648 38.04632442 59.41861084 36.51567547 73 33 C78.06355029 42.85903027 82.86794535 52.83517403 87.5625 62.875 C88.11131836 64.03435059 88.66013672 65.19370117 89.22558594 66.38818359 C89.98210449 68.01747803 89.98210449 68.01747803 90.75390625 69.6796875 C91.21095947 70.65663574 91.6680127 71.63358398 92.13891602 72.64013672 C92.42307373 73.4188916 92.70723145 74.19764648 93 75 C92.67 75.66 92.34 76.32 92 77 C91.25234375 76.04738281 90.5046875 75.09476562 89.734375 74.11328125 C88.73959527 72.8463448 87.74480293 71.57941824 86.75 70.3125 C86.01330078 69.37374023 86.01330078 69.37374023 85.26171875 68.41601562 C84.53662109 67.49272461 84.53662109 67.49272461 83.796875 66.55078125 C83.32314453 65.94572754 82.84941406 65.34067383 82.36132812 64.71728516 C81.14436248 63.18211006 79.89455623 61.67310144 78.640625 60.16796875 C77 58 77 58 77 56 C75.98164063 56.2165625 74.96328125 56.433125 73.9140625 56.65625 C48.48460799 61.77433777 24.3616679 59.04301465 2 45 C-1.86292842 42.19899214 -5.45853905 39.19542507 -9 36 C-10.18916016 34.93458984 -10.18916016 34.93458984 -11.40234375 33.84765625 C-17.26285568 28.30771933 -22.10130053 22.07502411 -26 15 C-26 14.01 -26 13.02 -26 12 C-22.33850369 10.26263025 -18.67233175 8.53560142 -15.00146484 6.81811523 C-13.75273093 6.23209088 -12.50532378 5.64323083 -11.25927734 5.05151367 C-9.47061771 4.20271855 -7.67678122 3.36485953 -5.8828125 2.52734375 C-4.80402832 2.01937256 -3.72524414 1.51140137 -2.61376953 0.98803711 C-1.75122559 0.66198486 -0.88868164 0.33593262 0 0 Z " fill="#558531" transform="translate(214,279)"/>
<path d="M0 0 C2.92140009 2.69866923 5.23611995 5.21299062 7.296875 8.62109375 C9.74029499 12.53197289 12.1732025 16.32036855 16 19 C21.1687827 19.63938164 25.54690214 18.55726038 30.58447266 17.43945312 C51.8585422 13.56909481 74.42252529 19.91548614 92 32 C102.02645482 39.40590413 112.36493217 48.64147113 118 60 C118 61.32 118 62.64 118 64 C114.04447897 65.83944626 110.08513715 67.67051553 106.125 69.5 C104.99707031 70.02464844 103.86914062 70.54929687 102.70703125 71.08984375 C101.09248047 71.83427734 101.09248047 71.83427734 99.4453125 72.59375 C98.45031738 73.05458984 97.45532227 73.51542969 96.43017578 73.99023438 C94 75 94 75 92 75 C92.4640625 74.13375 92.4640625 74.13375 92.9375 73.25 C94.36461345 70.23565308 94.36461345 70.23565308 95 67 C87.73089289 53.80791672 72.8423863 45.90154685 58.9375 41.6875 C47.82833192 38.91301616 36.44853386 38.94327121 25.296875 41.66015625 C22.37192915 42.09292885 20.79815662 42.04475083 18 41 C16.50465625 38.597635 15.41948504 36.4762417 14.3359375 33.89453125 C14.01718658 33.17770676 13.69843567 32.46088226 13.37002563 31.72233582 C12.35369635 29.4264852 11.36399646 27.12023857 10.375 24.8125 C9.70229212 23.27721746 9.02783176 21.74270152 8.3515625 20.20898438 C7.39421496 18.03713031 6.4394676 15.86456009 5.49862671 13.6855011 C4.17173173 10.61528871 2.80761473 7.62244322 1.28759766 4.6394043 C0 2 0 2 0 0 Z " fill="#558531" transform="translate(223,145)"/>
<path d="M0 0 C3 1 3 1 4.36621094 3.28491211 C4.81770508 4.27241455 5.26919922 5.25991699 5.734375 6.27734375 C6.47107422 7.88319336 6.47107422 7.88319336 7.22265625 9.52148438 C7.72667969 10.64876953 8.23070312 11.77605469 8.75 12.9375 C9.26949219 14.06091797 9.78898437 15.18433594 10.32421875 16.34179688 C13.13819496 22.5482192 13.13819496 22.5482192 14 25 C13.67 25.66 13.34 26.32 13 27 C11.35 25.68 9.7 24.36 8 23 C-6.07657933 29.46086901 -13.29743534 44.06612176 -19.10546875 57.5703125 C-22.95874727 68.8226094 -22.50764357 83.76436082 -19 95 C-18.96213099 96.66623639 -18.95568192 98.33392267 -19 100 C-24.03200733 102.40992434 -29.06745441 104.81245048 -34.10620117 107.20825195 C-35.81907624 108.02394532 -37.53100172 108.84163592 -39.24194336 109.66137695 C-41.70438391 110.84074508 -44.17017388 112.01283844 -46.63671875 113.18359375 C-47.77919319 113.73363319 -47.77919319 113.73363319 -48.94474792 114.29478455 C-52.61583449 116.02887711 -55.92992134 117.46177871 -60 118 C-57.36488985 115.20081695 -54.81149557 112.77422951 -51.6328125 110.60546875 C-51.05789062 110.20650391 -50.48296875 109.80753906 -49.890625 109.39648438 C-48.70289788 108.58320662 -47.50185071 107.78908221 -46.2890625 107.01367188 C-44.29247231 105.68519434 -44.29247231 105.68519434 -42 103 C-42.04238973 99.93885581 -42.26122879 97.87483034 -43 95 C-46.50650799 76.49064713 -44.3924932 55.88035565 -36 39 C-35.54625 38.06671875 -35.0925 37.1334375 -34.625 36.171875 C-27.11143939 21.55309947 -14.8267198 7.51491278 0 0 Z " fill="#CCC151" transform="translate(221,173)"/>
<path d="M0 0 C1.43655854 -0.08131463 2.8744483 -0.13933559 4.3125 -0.1875 C5.51326172 -0.23970703 5.51326172 -0.23970703 6.73828125 -0.29296875 C9 0 9 0 10.27856445 1.37695312 C12.57687457 3.5439033 14.82570042 4.22840421 17.8046875 5.26171875 C18.94550781 5.65810547 20.08632812 6.05449219 21.26171875 6.46289062 C22.45410156 6.86701172 23.64648438 7.27113281 24.875 7.6875 C26.05964844 8.10322266 27.24429688 8.51894531 28.46484375 8.94726562 C37.83001714 12.2872561 37.83001714 12.2872561 47.3125 10.5 C48.529375 10.005 49.74625 9.51 51 9 C51.495 12.96 51.495 12.96 52 17 C53.32 17.33 54.64 17.66 56 18 C56 19.32 56 20.64 56 22 C54.63875 21.9690625 54.63875 21.9690625 53.25 21.9375 C50.56208142 21.98919074 48.50179694 22.07340854 46 23 C45.67 23.66 45.34 24.32 45 25 C41 19.375 41 19.375 41 16 C39.62521484 15.87818359 39.62521484 15.87818359 38.22265625 15.75390625 C31.67655724 14.82016081 25.52722907 12.08511366 19.36132812 9.79492188 C18.37455078 9.43849609 17.38777344 9.08207031 16.37109375 8.71484375 C15.48349365 8.38605225 14.59589355 8.05726074 13.68139648 7.71850586 C10.95450596 6.85779627 10.95450596 6.85779627 7.84399414 7.04125977 C5 7 5 7 2.125 4.625 C0 2 0 2 0 0 Z " fill="#191919" transform="translate(218,233)"/>
<path d="M0 0 C0.33 0 0.66 0 1 0 C3.28748663 9.62872278 1.61516838 18.68437956 -3.13671875 27.26953125 C-7.95050367 34.32369406 -14.69126137 39.71802249 -23 42 C-25.76811215 42.27681121 -28.20944236 42.20294965 -31 42 C-31 41.67 -31 41.34 -31 41 C-30.29875 40.84144531 -29.5975 40.68289063 -28.875 40.51953125 C-19.17881477 38.13500744 -11.6290411 34.51872688 -6 26 C-2.18031145 19.19045938 -1.46971189 12.6324267 -1.17578125 4.90625 C-1 2 -1 2 0 0 Z " fill="#F7F7F7" transform="translate(293,241)"/>
<path d="M0 0 C0.66 0.33 1.32 0.66 2 1 C1.01 1.5259375 1.01 1.5259375 0 2.0625 C-5.69929819 5.74329675 -11.21403368 10.32105052 -15 16 C-15 16.99 -15 17.98 -15 19 C-16.32 18.34 -17.64 17.68 -19 17 C-14.41898151 9.70430388 -8.38824456 2.79608152 0 0 Z " fill="#E5E5E5" transform="translate(247,218)"/>
<path d="M0 0 C7.10459968 1.45735378 12.74395311 6.7180245 16.76953125 12.57421875 C18 15 18 15 18 18 C17.34 18 16.68 18 16 18 C14.95703125 16.4609375 14.95703125 16.4609375 13.8125 14.375 C10.393078 8.66921892 6.01433738 4.81634179 0 2 C0 1.34 0 0.68 0 0 Z " fill="#F7F7F7" transform="translate(273,219)"/>
<path d="M0 0 C0 3.23861295 -0.6250851 5.09740189 -2 8 C-2.99 8.495 -2.99 8.495 -4 9 C-4.66 8.34 -5.32 7.68 -6 7 C-4.02 4.69 -2.04 2.38 0 0 Z " fill="#D8D8D8" transform="translate(234,228)"/>
</svg>
